<svg width="22" height="22" viewBox="0 0 24 24" fill="none" xmlns="http://www.w3.org/2000/svg">
  <path d="M15.05 5C16.14 5.35 17.13 5.98 17.93 6.83C18.73 7.68 19.33 8.72 19.66 9.86M14.5 8.5C15.15 8.73 15.74 9.11 16.22 9.62C16.7 10.13 17.05 10.75 17.24 11.42" stroke="#00090A" stroke-width="1.5" stroke-linecap="round" stroke-linejoin="round"/>
  <path d="M8.5 4.5H6.5C5.67 4.5 5 5.17 5 6C5 13.18 10.82 19 18 19C18.83 19 19.5 18.33 19.5 17.5V15.5L16.5 14L15 15.5C13 14.5 11.5 13 10.5 11L12 9.5L10.5 6.5L8.5 4.5Z" stroke="#00090A" stroke-width="1.5" stroke-linecap="round" stroke-linejoin="round"/>
</svg>
